<svg width="78" height="63" viewBox="0 0 78 63" fill="none" xmlns="http://www.w3.org/2000/svg">
<g clip-path="url(#clip0_1_61)">
<path d="M36.9306 0H41.2286V0.192857H42.502L42.5816 0.257143L43.7755 0.321429L43.8551 0.385714L44.8898 0.45L44.9694 0.514286L45.5265 0.578571L45.6061 0.642857L46.1633 0.707143L46.2429 0.771429L46.8 0.835714L46.8796 0.9L47.4367 0.964286L47.9939 1.15714L48.8694 1.35L49.4265 1.54286L50.1429 1.73571L50.9388 1.99286L51.3367 2.18571L52.0531 2.37857L53.4061 2.95714L53.8837 3.21429L54.5204 3.47143L54.998 3.72857L55.3959 3.92143L57.7837 5.20714L58.0224 5.4L58.4204 5.59286L58.9776 6.04286L59.3755 6.23571L63.1959 9.32143L63.4347 9.64286L63.9918 10.0929L64.2306 10.4143L64.6286 10.7357L64.8673 11.0571L65.1061 11.25L65.3449 11.5714L66.3 12.7286L66.698 13.3071L67.0163 13.6929L67.4939 14.4643L67.8122 14.85L68.449 15.8786L68.6878 16.4571L68.9265 16.7786L69.1653 17.3571L69.4837 18L69.7224 18.45L69.9612 19.1571L70.2 19.6071L70.2796 20.0571L70.5184 20.5071L70.598 20.9571L70.6776 21.0214L70.7571 21.6L70.8367 21.6643L70.9163 22.1143L70.9959 22.1786L71.0755 22.8857L71.1551 22.95L71.2347 23.5286L71.3143 23.5929L71.3939 24.5571L71.4735 24.6214V25.5214H71.7122V29.6357H71.4735V30.5357L71.3939 30.6L71.3143 31.4357L71.2347 31.5L71.1551 32.2071L71.0755 32.2714L70.9959 32.85L70.9163 32.9143L70.8367 33.4929L70.7571 33.5571L70.6776 34.0071L70.598 34.0714L70.5184 34.5214L70.2796 34.9714L70.1204 35.3571L70.0408 35.8071L69.802 36.2571L69.5633 36.9643L69.3245 37.2857L69.0857 37.8643L68.7673 38.5071L68.051 39.6L67.3347 40.8214L67.0959 41.0143L66.7775 41.5286L66.4592 41.9143L66.2204 42.2357L65.5837 43.0071L65.3449 43.2L65.1061 43.5214L64.7878 43.9071L64.3898 44.2286L64.151 44.55L63.7531 44.8714L63.5143 45.1929L58.898 48.9214L58.5 49.1143L58.102 49.4357L57.7041 49.6286L57.2265 49.8857L56.9878 50.0786L56.5898 50.2714L56.1122 50.5286L55.8735 50.7214L55.2367 50.9786L54.6 51.3643L53.9633 51.6214L53.8041 51.75L53.3265 51.8786L52.849 52.1357L51.5755 52.65L50.8592 52.8429L50.1429 53.1643L49.2673 53.3571L48.8694 53.55L47.9939 53.7429L47.9143 53.8071H47.2775L47.0388 53.7429L46.7204 54.2571L46.4816 54.8357L46.0837 55.4143L45.9245 55.8L45.6061 56.1857L44.9694 57.2143L44.651 57.4714L44.4122 57.7929L44.0939 58.1786L42.502 59.4643L42.1041 59.6571L41.0694 60.4929L40.6714 60.6857L39.9551 61.2643L39.5571 61.4571L38.9204 61.9714L38.4429 62.6143L38.3633 63H38.2041L38.1245 62.4857L37.8857 62.2929L37.6469 61.9714L36.5326 61.0714L36.1347 60.8786L35.7367 60.5571L35.3388 60.3643L31.8367 57.5357L31.598 57.2143L31.2 56.6357L30.8816 56.25L30.1653 55.0286L29.8469 54.3857L29.6082 54.0643L29.2102 53.1L28.8122 53.1643L28.7326 53.3571L28.0163 53.1643L27.6184 52.9714L26.902 52.7786L25.549 52.2L24.0367 51.6214L23.798 51.4286L23.1612 51.1714L22.5245 50.7857L21.8878 50.5286L21.5694 50.2714L21.1714 50.0786L20.2163 49.5643L19.8184 49.2429L19.4204 49.05L18.7041 48.4714L18.3061 48.2786L14.8041 45.45L14.5653 45.1286L14.1673 44.8071L13.9286 44.4857L13.3714 44.0357L13.1326 43.7143L12.8143 43.3286L12.5755 43.1357L12.3367 42.8143L11.7 42.0429L11.302 41.4643L10.9837 41.0786L10.6653 40.5643L10.3469 40.1786L9.63061 38.9571L9.39183 38.6357L9.15306 38.0571L8.7551 37.4786L8.51632 36.7714L8.27755 36.45L8.03877 35.7429L7.8 35.2929L7.64081 34.9071L7.56122 34.4571L7.48163 34.3929L7.40204 33.9429L7.32244 33.8786L7.24285 33.4286L7.16326 33.3643L7.08367 32.9143L7.00408 32.85L6.92448 32.1429L6.84489 32.0786L6.7653 31.3714L6.68571 31.3071L6.60612 30.4714L6.52653 30.4071V28.9929H6.28775V25.9071H6.52653V24.6214L6.60612 24.5571L6.68571 23.7214L6.7653 23.6571L6.84489 22.95L6.92448 22.8857L7.00408 22.1786L7.08367 22.1143L7.16326 21.6643L7.24285 21.6L7.32244 21.15L7.40204 21.0857L7.48163 20.6357L7.56122 20.5714L7.64081 20.1214L7.87959 19.6714L7.95918 19.2214L8.19795 18.7714L8.43673 18.0643L8.67551 17.7429L8.91428 17.0357L9.31224 16.4571L9.55102 15.8786L10.2673 14.7857L10.9041 13.7571L11.2224 13.3714L11.4612 13.05L11.8592 12.4714L12.3367 11.9571L12.5755 11.6357L12.8939 11.25L13.1326 11.0571L13.3714 10.7357L13.6102 10.5429L13.849 10.2214L14.0878 10.0286L14.3265 9.70714L19.102 5.85L19.5 5.65714L19.7388 5.46429L20.1367 5.27143L20.5347 4.95L20.9326 4.75714L21.4102 4.5L21.649 4.30714L22.2857 4.05L22.9224 3.66429L23.5592 3.40714L24.0367 3.15L25.549 2.57143L26.5837 2.12143L27.3 1.92857L28.0959 1.67143L28.6531 1.47857L29.5286 1.28571L29.6082 1.22143L30.1653 1.15714L30.7224 0.964286L31.2 0.835714L31.7571 0.771429L31.8367 0.707143L32.3939 0.642857L32.4735 0.578571L33.349 0.514286L33.4286 0.45L34.1449 0.385714L34.2245 0.321429L35.1 0.257143L35.1796 0.192857H36.9306V0ZM35.7367 0.835714L35.6571 0.9L34.4633 0.964286L34.3837 1.02857L33.5082 1.09286L33.4286 1.15714L32.7122 1.22143L32.6327 1.28571L31.9163 1.35L31.3592 1.54286L30.802 1.60714L30.2449 1.8L29.3694 1.99286L28.8122 2.18571L27.9367 2.37857L27.2204 2.7L26.5041 2.89286L24.9918 3.53571L24.3551 3.85714L23.6388 4.17857L22.3653 4.82143L20.7735 5.78571L20.2163 6.17143L19.4204 6.62143L16.2367 9.19286L15.7592 9.70714L15.4408 9.9L15.2816 10.2214L14.9633 10.5429L14.4857 11.0571L14.1673 11.3786V11.5714L13.7694 11.8929L13.3714 12.3429L12.9735 12.9214L12.5755 13.3714L11.8592 14.5929L11.1429 15.6857L10.7449 16.5214L10.5061 16.8429L10.2673 17.55L9.94897 18.1929L9.7102 18.6429L9.63061 19.0929L9.39183 19.5429L9.31224 19.9929L9.07346 20.4429L8.99387 21.0214L8.91428 21.0857L8.83469 21.5357L8.7551 21.6L8.67551 22.1786L8.59591 22.2429L8.51632 22.95L8.43673 23.0143L8.35714 23.9786L8.27755 24.0429L8.19795 25.2643L8.11836 25.3286V29.7L8.19795 29.7643L8.27755 31.2429L8.35714 31.3071L8.43673 31.8857L8.51632 31.95L8.59591 32.6571L8.67551 32.7214L8.7551 33.3L8.83469 33.3643L8.91428 33.9429L8.99387 34.0071L9.07346 34.4571L9.15306 34.5214L9.23265 34.9714L9.47142 35.4214L9.7102 36.1286L9.94897 36.5786L10.1878 37.2857L10.4265 37.6071L10.6653 38.1857L10.9041 38.5071L11.1429 39.0857L11.8592 40.1786L12.4959 41.2071L13.2122 42.1714L13.6898 42.75L14.7245 43.9714L15.202 44.4214L15.7592 45.0643L16.4755 45.7714L19.2612 48.0214L19.898 48.4071L20.6939 48.9214L21.5694 49.4357L22.5245 50.0143L23.3204 50.4643L24.0367 50.7857L24.9122 51.2357L25.7082 51.5571L26.3449 51.8786L27.6184 52.3929L28.0959 52.5214L28.4143 52.7786L28.5735 52.9714L28.9714 52.8429V52.4571L28.8918 52.3929L28.8122 51.9429L28.5735 51.6214L28.4939 51.0429L28.4143 50.9786L28.3347 50.4L28.2551 50.3357L28.1755 49.6286L28.0959 49.5643L28.0163 48.8571L27.9367 48.7929V47.5071L28.0163 47.1857L27.7775 46.9929L27.0612 46.9286L26.5041 46.7357L25.7878 46.5429L24.6735 45.9643L23.002 44.6143L22.5245 44.1L21.7286 43.4571L21.251 42.9429L20.6143 42.3L19.9775 41.5929L18.3857 39.7929L17.9878 39.2143L17.5898 38.7643L16.8735 37.5429L16.1571 36.45L15.8388 35.9357L15.6 35.3571L15.2816 34.7143L15.0429 34.2643L14.8041 33.5571L14.7245 33.4929V32.3357L15.0429 31.6929L15.7592 30.6L16.1571 29.9571L16.9531 28.9286L18.6245 26.9357L19.102 26.4857L19.8184 25.7143L20.3755 25.2L21.0918 24.4286L22.1265 23.5929L22.6041 23.0786L23.0816 22.6286L23.4796 22.05L24.1959 20.9571L24.8326 19.9286L25.549 19.1571L26.3449 18.5143L27.3 18.0643L27.698 17.8714L28.5735 17.6786L28.6531 17.6143L32.8714 17.55L33.6673 17.3571L34.3837 17.0357L35.2592 16.3286L35.6571 15.4286L35.8163 14.9143V13.3714L35.5775 12.4714L35.1 12.6L34.2245 14.7214L33.9061 15.1071L33.1102 15.75L32.7122 15.9429L31.9163 16.2643L30.6429 16.5857H30.4837L31.0408 16.3286L31.7571 16.1357L32.4735 15.75L33.1102 15.2357L33.2694 14.9143V13.8857L33.0306 13.6929L32.6327 13.7571L32.3939 14.3357L31.9163 14.9143L31.2 15.4286L30.4041 15.8143L29.3694 16.1357L28.8122 16.3286H25.9469L25.8673 16.2643L24.8326 16.2L25.3898 16.1357L25.4694 16.0714L26.6633 16.0071L26.7429 15.9429L27.3 15.8786L28.0163 15.4929L28.8122 14.85L28.9714 14.6571L29.1306 14.2714L29.2102 12.9214L29.2898 12.8571V12.2143L29.051 12.0214L28.3347 12.2143L27.5388 12.4714L26.902 12.9214L26.8224 13.05L26.902 12.7286L27.3 12.4071L28.3347 11.9571L29.051 11.7643L29.9265 11.3786L30.3245 11.0571L30.1653 10.7357L29.7673 10.8L28.9714 11.0571L28.4939 11.1857L27.9367 11.25L27.1408 11.5071L26.5041 11.7643L25.6286 12.2786L24.7531 12.9857L24.0367 13.3714L23.0816 13.7571H20.8531L19.898 13.3714L20.2959 13.4357H23.1612L23.8775 13.05L24.5143 12.5357L25.151 11.7643L25.8673 11.1857L27.0612 10.6714L27.698 10.4143L28.5735 10.2214L28.9714 10.0286L29.8469 9.83572L30.4041 9.51429L30.9612 9.25714L31.9959 8.42143L32.3143 8.03572L32.5531 7.52143L32.7918 7.2L33.0306 6.62143L33.349 5.97857L33.9857 5.01429L34.9408 4.24286L36.1347 3.72857V3.6L36.4531 3.66429H38.8408L39.8755 3.53571L39.9551 3.66429L40.5918 3.85714L41.3082 4.17857L42.5816 5.20714L42.9 5.72143L42.9796 6.17143L43.0592 6.23571L43.1388 9.51429L43.2184 9.83572L42.9796 10.2857L42.7408 10.8643L42.4224 11.5071L41.8653 12.3429L40.751 13.2429L40.5918 13.5V15.8143L41.149 16.65L41.7857 17.1643L42.8204 17.4857L42.9 17.55L47.5959 17.6143L47.6755 17.6786L48.2327 17.7429L48.6306 17.9357L49.1082 18.0643L49.7449 18.45L50.1429 18.6429L51.0184 19.35L51.2571 19.6714L51.4959 19.8643L51.7347 20.1857L52.451 21.2786L53.0878 22.3071L53.4061 22.6929L53.6449 23.0143L53.8837 23.2071L54.1224 23.5286L55.3163 24.4929L55.5551 24.8143L56.5898 25.65L56.8286 25.9714L57.2265 26.2929L57.4653 26.6143L57.7041 26.8071L57.9429 27.1286L58.1816 27.3214L58.4204 27.6429L58.7388 28.0286L58.9776 28.2214L59.2163 28.5429L59.8531 29.3143L60.251 29.8929L60.5694 30.2786L61.2857 31.5L61.5245 31.8214L61.7633 32.5286L61.8429 32.5929V33.2357L61.7633 33.3L61.6837 33.75L61.4449 34.2L61.2061 34.7786L60.8878 35.4214L60.649 35.7429L60.4102 36.3214L59.8531 37.1571L59.6143 37.7357L59.3755 37.9286L58.7388 38.9571L58.2612 39.4714L57.9429 39.9857L57.4653 40.5L57.2265 40.8214L56.9878 41.0143L56.749 41.3357L56.4306 41.7214L56.1918 41.9143L55.9531 42.2357L55.7143 42.4286L55.4755 42.75L54.9184 43.2L54.6796 43.5214L53.8041 44.2286L53.5653 44.55L51.4163 46.2857L50.4612 46.6714L49.5857 46.8643L49.5061 46.9286L48.949 46.9929L48.551 47.25L48.4714 47.1857H47.6755L47.0388 47.3786L46.5612 47.6357L45.7653 48.0857L44.8102 48.5357L44.1735 48.6L44.2531 48.15H44.651L45.049 47.8286L45.4469 47.6357L47.9143 45.6429L49.1878 45.1286L49.6653 45L50.2224 44.9357L51.0184 44.6786L51.4959 44.4214L52.0531 43.9714L52.2918 43.65L52.5306 43.4571L52.7694 43.1357L53.0082 42.9429L53.2469 42.6214L53.6449 42.0429L53.9633 41.6571L54.202 41.3357L54.7592 40.5L55.0775 40.1143L55.7939 38.8929L56.1918 38.3143L56.4306 37.7357L56.8286 37.1571L57.0673 36.5786L57.3061 36.2571L57.5449 35.6786L57.7837 35.3571L58.0224 34.65L58.2612 34.3286L58.4204 33.9429V32.2714L58.1816 31.95L57.9429 31.3714L57.2265 30.2786L56.9878 29.9571L56.0326 28.8L55.7939 28.6071L55.5551 28.2857L55.3163 28.0929L55.0775 27.7714L54.6796 27.45L54.4408 27.1286L53.8837 26.6786L53.6449 26.3571L49.9041 23.3357L49.5061 23.1429L49.0286 22.8857L48.3122 22.5643H47.5163L47.0388 22.95L46.5612 22.8214L46.0041 22.7571L45.9245 22.6929H43.0592L42.502 22.8857L41.7857 23.0786L40.751 23.5286L38.8408 25.0714L38.602 25.3929L38.2837 25.7786H38.1245L37.4878 25.1357L36.9306 24.6214L35.8163 23.7214L34.9408 23.2071L34.3041 22.95L33.4286 22.7571L33.349 22.6929H30.6429L30.5633 22.7571L29.8469 22.8214L29.3694 22.95L28.8122 22.5643H28.1755L26.902 23.2071L26.1857 23.6571L23.2408 26.0357L22.7633 26.55L22.1265 27.1286L20.8531 28.4143L20.0571 29.3143L19.3408 30.2786L18.6245 31.3714L18.1469 32.1429V33.9429L19.4204 36.5143L19.6592 36.8357L19.898 37.4143L20.6143 38.5071L21.3306 39.7286L22.1265 40.95L22.8429 41.85L23.2408 42.4286L23.8775 43.1357L24.8326 44.1643L25.549 44.6786L26.3449 44.9357L27.2204 45L27.7775 45.1929L28.4939 45.3857L29.051 45.7071H29.449L29.5286 45.9643L30.3245 46.6071L30.5633 47.25L30.4837 47.5714L29.5286 47.1857L29.2102 47.1214H28.3347L28.1755 47.3143L28.2551 47.4429L29.5286 47.9571H29.6878V48.0857H29.8469V48.2143L30.3245 48.3429V48.4714H30.4837V48.6H30.6429V48.7286H30.802V48.8571H30.9612V48.9857H31.1204V49.1143H31.2796V49.2429H31.4388V49.3714H31.598V49.5H31.7571V49.6286H31.9163V49.7571H32.0755V49.8857H32.2347V50.0143H32.3939V50.1429H32.5531V50.2714H32.7122V50.4H32.8714V50.5286H33.0306V50.6571H33.1898V50.7857H33.349V50.9143H33.5082V51.0429H33.6673L33.8265 51.4286H33.9857L34.1449 51.8143H34.3041V51.9429H34.4633L34.6224 52.3286H34.7816V52.4571H34.9408L35.1 52.8429H35.2592L35.4184 53.2286H35.5775L35.7367 53.6143L36.0551 54.1286H36.2143L36.3735 54.5143L36.7714 55.1571L37.1694 56.0571L37.4878 56.4429L37.5673 56.5071L37.8061 57.4714L38.0449 58.3714L38.1245 59.0143L38.2041 59.1429H38.4429L38.602 58.1143L39.0796 56.6357L39.4775 55.9286L40.1939 54.7071L41.149 53.4214L41.8653 52.65V52.5214H42.0245L42.502 52.0071V51.8786H42.6612V51.75H42.8204L43.298 51.2357V51.1071H43.4571V50.9786H43.6163V50.85H43.7755V50.7214H43.9347V50.5929H44.0939V50.4643H44.2531V50.3357H44.4122V50.2071H44.5714V50.0786H44.7306V49.95H44.8898V49.8214H45.049V49.6929H45.2082V49.5643H45.3673V49.4357H45.5265V49.3071H45.6857V49.1786H45.8449V49.05H46.0041V48.9214H46.1633V48.7929H46.3224V48.6643H46.4816V48.5357H46.6408V48.4071H46.8V48.2786L47.198 48.15L47.9939 47.7L48.3122 47.5071L48.4714 47.6357V49.5643L48.3918 49.6286L48.3122 50.3357L48.2327 50.4L48.1531 50.85L47.9143 51.3L47.8347 51.75L47.5959 52.2L47.3571 52.9071L47.2775 52.9714V53.55L47.6755 53.6786L47.9143 53.2286L48.3918 52.9714L49.1082 52.7786L49.9041 52.5214L50.302 52.3286L51.0184 52.1357L52.3714 51.5571L53.6449 51.0429L54.1224 50.7857L54.5204 50.5929L55.2367 50.2714L55.8735 49.8857L56.351 49.6286L56.749 49.4357L57.1469 49.1143L57.5449 48.9214L57.9429 48.6L58.3408 48.4071L62.2408 45.2571L62.4796 44.9357L62.7184 44.7429L62.9571 44.4214L63.3551 44.1L63.5939 43.7786L64.2306 43.0071L64.4694 42.8143L64.7878 42.3L65.1061 41.9143L65.3449 41.5929L65.902 40.7571L66.2204 40.3714L66.8571 39.3429L67.0959 38.7643L67.3347 38.4429L67.5735 37.8643L67.8918 37.2214L68.1306 36.7714L68.3694 36.0643L68.449 36L68.5286 35.55L68.7673 35.1L68.8469 34.65L68.9265 34.5857L69.0061 34.1357L69.0857 34.0714L69.1653 33.6214L69.2449 33.5571L69.3245 32.9786L69.4041 32.9143L69.4837 32.2071L69.5633 32.1429L69.6429 31.3071L69.7224 31.2429L69.802 30.5357L69.8816 30.4714V24.8143L69.802 24.75L69.7224 23.6571L69.6429 23.5929L69.5633 22.8857L69.4837 22.8214L69.4041 22.1143L69.3245 22.05L69.2449 21.4714L69.1653 21.4071L69.0857 20.9571L69.0061 20.8929L68.9265 20.4429L68.8469 20.3786L68.7673 19.9286L68.5286 19.4786L68.449 19.0286L68.2102 18.5786L67.9714 17.8714L67.7327 17.55L67.4939 16.8429L67.0959 16.2643L66.8571 15.6857L66.1408 14.5929L65.5041 13.5643L65.1857 13.1786L64.9469 12.8571L64.549 12.2786L64.0714 11.7643L63.8326 11.4429L63.1959 10.6714L62.9571 10.4786L62.7184 10.1571L62.3204 9.83572L62.0816 9.51429L58.0224 6.23571L57.6245 6.04286L57.2265 5.72143L56.8286 5.52857L56.5898 5.33571L56.1918 5.14286L55.9531 4.95L55.3163 4.69286L54.6796 4.30714L54.0429 4.05L53.5653 3.79286L53.1673 3.6L51.8143 3.02143L50.7796 2.7L50.0633 2.37857L49.1878 2.18571L48.3918 1.92857L48.3122 1.86429L47.7551 1.8L47.198 1.60714L46.6408 1.54286L46.0837 1.35L45.2082 1.28571L45.1286 1.22143L44.4122 1.15714L44.3326 1.09286L43.4571 1.02857L43.3775 0.964286L42.3429 0.9L42.2633 0.835714H35.7367Z" fill="#212121"/>
<path d="M30.0857 24.4928H32.6326L32.7122 24.5571L33.2694 24.6214L33.349 24.6857L33.9061 24.7499L34.3041 24.9428L35.0204 25.1357L36.2939 25.7785L37.0898 26.3571L37.3286 26.5499L37.8061 26.4857L38.0449 26.2285L38.1245 25.9714L38.7612 26.3571L39.2388 26.4857L40.2735 25.6499L40.6714 25.4571L42.0245 24.8785L42.9 24.6857L42.9796 24.6214L43.5367 24.5571L43.6163 24.4928H46.6408V24.8785L46.5612 24.9428L46.4816 25.5214L46.402 25.5857L46.3224 26.1642L46.2429 26.2285L46.1633 26.8071L46.0837 26.8714L46.0041 27.4499L45.5265 27.8357L44.2531 28.3499L43.7755 28.4785H41.7061L40.9102 28.2214L40.1939 27.8999L39.2388 27.1285H38.602L38.2837 27.3857L38.4429 27.6428L38.7612 28.0285L39.8755 28.9285L40.2735 29.1214L41.3082 29.5714H44.0143L45.2878 29.0571L45.3673 29.2499L45.1286 29.6999L44.8898 30.4071L44.2531 31.6928L44.1735 31.7571L44.0939 32.2071L43.8551 32.5285L43.7755 32.9785L43.6959 33.0428L43.6163 33.4928L43.5367 33.5571L43.4571 34.0071L43.3775 34.0714V35.9999L43.6959 36.6428L44.0939 37.2214L44.4122 37.6071L44.651 37.9285L45.049 38.5071L45.5265 39.0214L45.8449 39.5357L46.1633 39.9214L46.8796 41.1428L47.1184 41.4642L47.3571 42.0428L47.5959 42.4928L47.8347 43.1999L48.0735 43.6499L48.1531 44.0999L48.2326 44.1642V44.6785L47.9143 44.9357L47.5163 45.1285L47.2775 45.3214L46.8796 45.5142L43.8551 47.9571L43.7755 48.4071H43.6163V48.5357H43.4571V48.6642H43.298L43.1388 48.9214L42.3429 49.8214L41.7061 50.5928L41.3082 51.0428L40.9102 51.6214L40.2735 52.5214L39.7163 53.3571L39.3184 54.1928L39.0796 54.6428L38.6816 55.5428L38.4429 56.1857H38.2837L38.2041 56.3142L37.8857 55.1571L37.3286 53.9999L37.0898 53.4857L36.6918 52.7785L36.0551 51.7499V51.5571H35.8959L35.4184 50.8499V50.6571H35.2592L35.1 50.4642V50.2714H34.9408L34.7816 50.0785V49.8857H34.6224L34.4633 49.6928V49.4999H34.3041L34.1449 49.3071V49.1142H33.9857V48.9857H33.8265L33.6673 48.7928V48.5999H33.5082V48.4714H33.349V48.3428H33.1898V48.2142H33.0306V48.0857H32.8714L32.2347 47.4428L31.6775 46.9928L31.5184 46.7357L31.0408 46.4785L30.0857 45.7071L29.6877 45.5142L28.9714 44.9999L28.3347 44.6785L28.2551 44.4857L28.3347 44.0357L28.4143 43.9714L28.4939 43.5214L28.7326 43.0714L28.9714 42.3642L29.2102 42.0428L29.449 41.4642L29.6877 41.1428L29.8469 40.7571L30.3245 40.1142L30.9612 39.0857L32.2347 37.5428L33.0306 36.3857V33.9428L32.951 33.8785L32.8714 33.2999L32.7918 33.2357L32.7122 32.7857L32.4735 32.3357L32.2347 31.6285L31.9959 31.3071L31.7571 30.5999L31.5184 30.2785L31.2796 29.5714L31.0408 29.2499L31.1204 28.9928L31.7571 29.3142L32.5531 29.5714H35.1L35.8959 29.3142L36.7714 28.7999L37.7265 28.0285V27.6428L37.5673 27.5142H36.9306L36.2143 27.9642L35.3388 28.3499L34.4633 28.5428L34.3837 28.6071H33.1102L32.5531 28.4142L31.8367 28.2214L30.6429 27.7071L30.4041 27.4499L30.3245 26.9999L30.2449 26.9357L30.1653 26.3571L30.0857 26.2928L30.0061 25.5857L29.9265 25.5214L29.8469 24.6857L30.0857 24.4928Z" fill="#202020"/>
<path d="M36.9306 0H41.2286V0.192857H42.502L42.5816 0.257143L43.7755 0.321429L43.8551 0.385714L44.8898 0.45L44.9694 0.514286L45.5265 0.578571L45.6061 0.642857L46.1633 0.707143L46.2429 0.771429L46.8 0.835714L46.8796 0.9L47.4367 0.964286L47.9939 1.15714L48.8694 1.35L49.4265 1.54286L50.1429 1.73571L50.9388 1.99286L51.3367 2.18571L52.0531 2.37857L53.4061 2.95714L53.8837 3.21429L54.5204 3.47143L54.998 3.72857L55.3959 3.92143L57.7837 5.20714L58.0224 5.4L58.4204 5.59286L58.9776 6.04286L59.3755 6.23571L63.1959 9.32143L63.4347 9.64286L63.9918 10.0929L64.2306 10.4143L64.6286 10.7357L64.8673 11.0571L65.1061 11.25L65.3449 11.5714L66.3 12.7286L66.698 13.3071L67.0163 13.6929L67.4939 14.4643L67.8122 14.85L68.449 15.8786L68.6878 16.4571L68.9265 16.7786L69.1653 17.3571L69.4837 18L69.7224 18.45L69.9612 19.1571L70.2 19.6071L70.2796 20.0571L70.5184 20.5071L70.598 20.9571L70.6776 21.0214L70.7571 21.6L70.8367 21.6643L70.9163 22.1143L70.9959 22.1786L71.0755 22.8857L71.1551 22.95L71.2347 23.5286L71.3143 23.5929L71.3939 24.5571L71.4735 24.6214V25.5214H71.7122V29.6357H71.4735V30.5357L71.3939 30.6L71.3143 31.4357L71.2347 31.5L71.1551 32.2071L71.0755 32.2714L70.9959 32.85L70.9163 32.9143L70.8367 33.4929L70.7571 33.5571L70.6776 34.0071L70.598 34.0714L70.5184 34.5214L70.2796 34.9714L70.1204 35.3571L70.0408 35.8071L69.802 36.2571L69.5633 36.9643L69.3245 37.2857L69.0857 37.8643L68.7673 38.5071L68.051 39.6L67.3347 40.8214L67.0959 41.0143L66.7775 41.5286L66.4592 41.9143L66.2204 42.2357L65.5837 43.0071L65.3449 43.2L65.1061 43.5214L64.7878 43.9071L64.3898 44.2286L64.151 44.55L63.7531 44.8714L63.5143 45.1929L58.898 48.9214L58.5 49.1143L58.102 49.4357L57.7041 49.6286L57.2265 49.8857L56.9878 50.0786L56.5898 50.2714L56.1122 50.5286L55.8735 50.7214L55.2367 50.9786L54.6 51.3643L53.9633 51.6214L53.8041 51.75L53.3265 51.8786L52.849 52.1357L51.5755 52.65L50.8592 52.8429L50.1429 53.1643L49.2673 53.3571L48.8694 53.55L47.9939 53.7429L47.9143 53.8071H47.2775L47.0388 53.7429L46.7204 54.2571L46.4816 54.8357L46.0837 55.4143L45.9245 55.8L45.6061 56.1857L44.9694 57.2143L44.651 57.4714L44.4122 57.7929L44.0939 58.1786L42.502 59.4643L42.1041 59.6571L41.0694 60.4929L40.6714 60.6857L39.9551 61.2643L39.5571 61.4571L38.9204 61.9714L38.4429 62.6143L38.3633 63H38.2041L38.1245 62.4857L37.8857 62.2929L37.6469 61.9714L36.5326 61.0714L36.1347 60.8786L35.7367 60.5571L35.3388 60.3643L31.8367 57.5357L31.598 57.2143L31.2 56.6357L30.8816 56.25L30.1653 55.0286L29.8469 54.3857L29.6082 54.0643L29.2102 53.1L28.8122 53.1643L28.7326 53.3571L28.0163 53.1643L27.6184 52.9714L26.902 52.7786L25.549 52.2L24.0367 51.6214L23.798 51.4286L23.1612 51.1714L22.5245 50.7857L21.8878 50.5286L21.5694 50.2714L21.1714 50.0786L20.2163 49.5643L19.8184 49.2429L19.4204 49.05L18.7041 48.4714L18.3061 48.2786L14.8041 45.45L14.5653 45.1286L14.1673 44.8071L13.9286 44.4857L13.3714 44.0357L13.1326 43.7143L12.8143 43.3286L12.5755 43.1357L12.3367 42.8143L11.7 42.0429L11.302 41.4643L10.9837 41.0786L10.6653 40.5643L10.3469 40.1786L9.63061 38.9571L9.39183 38.6357L9.15306 38.0571L8.7551 37.4786L8.51632 36.7714L8.27755 36.45L8.03877 35.7429L7.8 35.2929L7.64081 34.9071L7.56122 34.4571L7.48163 34.3929L7.40204 33.9429L7.32244 33.8786L7.24285 33.4286L7.16326 33.3643L7.08367 32.9143L7.00408 32.85L6.92448 32.1429L6.84489 32.0786L6.7653 31.3714L6.68571 31.3071L6.60612 30.4714L6.52653 30.4071V28.9929H6.28775V25.9071H6.52653V24.6214L6.60612 24.5571L6.68571 23.7214L6.7653 23.6571L6.84489 22.95L6.92448 22.8857L7.00408 22.1786L7.08367 22.1143L7.16326 21.6643L7.24285 21.6L7.32244 21.15L7.40204 21.0857L7.48163 20.6357L7.56122 20.5714L7.64081 20.1214L7.87959 19.6714L7.95918 19.2214L8.19795 18.7714L8.43673 18.0643L8.67551 17.7429L8.91428 17.0357L9.31224 16.4571L9.55102 15.8786L10.2673 14.7857L10.9041 13.7571L11.2224 13.3714L11.4612 13.05L11.8592 12.4714L12.3367 11.9571L12.5755 11.6357L12.8939 11.25L13.1326 11.0571L13.3714 10.7357L13.6102 10.5429L13.849 10.2214L14.0878 10.0286L14.3265 9.70714L19.102 5.85L19.5 5.65714L19.7388 5.46429L20.1367 5.27143L20.5347 4.95L20.9326 4.75714L21.4102 4.5L21.649 4.30714L22.2857 4.05L22.9224 3.66429L23.5592 3.40714L24.0367 3.15L25.549 2.57143L26.5837 2.12143L27.3 1.92857L28.0959 1.67143L28.6531 1.47857L29.5286 1.28571L29.6082 1.22143L30.1653 1.15714L30.7224 0.964286L31.2 0.835714L31.7571 0.771429L31.8367 0.707143L32.3939 0.642857L32.4735 0.578571L33.349 0.514286L33.4286 0.45L34.1449 0.385714L34.2245 0.321429L35.1 0.257143L35.1796 0.192857H36.9306V0ZM35.7367 0.835714L35.6571 0.9L34.4633 0.964286L34.3837 1.02857L33.5082 1.09286L33.4286 1.15714L32.7122 1.22143L32.6327 1.28571L31.9163 1.35L31.3592 1.54286L30.802 1.60714L30.2449 1.8L29.3694 1.99286L28.8122 2.18571L27.9367 2.37857L27.2204 2.7L26.5041 2.89286L24.9918 3.53571L24.3551 3.85714L23.6388 4.17857L22.3653 4.82143L20.7735 5.78571L20.2163 6.17143L19.4204 6.62143L16.2367 9.19286L15.7592 9.70714L15.4408 9.9L15.2816 10.2214L14.9633 10.5429L14.4857 11.0571L14.1673 11.3786V11.5714L13.7694 11.8929L13.3714 12.3429L12.9735 12.9214L12.5755 13.3714L11.8592 14.5929L11.1429 15.6857L10.7449 16.5214L10.5061 16.8429L10.2673 17.55L9.94897 18.1929L9.7102 18.6429L9.63061 19.0929L9.39183 19.5429L9.31224 19.9929L9.07346 20.4429L8.99387 21.0214L8.91428 21.0857L8.83469 21.5357L8.7551 21.6L8.67551 22.1786L8.59591 22.2429L8.51632 22.95L8.43673 23.0143L8.35714 23.9786L8.27755 24.0429L8.19795 25.2643L8.11836 25.3286V29.7L8.19795 29.7643L8.27755 31.2429L8.35714 31.3071L8.43673 31.8857L8.51632 31.95L8.59591 32.6571L8.67551 32.7214L8.7551 33.3L8.83469 33.3643L8.91428 33.9429L8.99387 34.0071L9.07346 34.4571L9.15306 34.5214L9.23265 34.9714L9.47142 35.4214L9.7102 36.1286L9.94897 36.5786L10.1878 37.2857L10.4265 37.6071L10.6653 38.1857L10.9041 38.5071L11.1429 39.0857L11.8592 40.1786L12.4959 41.2071L13.2122 42.1714L13.6898 42.75L14.7245 43.9714L15.202 44.4214L15.7592 45.0643L16.4755 45.7714L19.2612 48.0214L19.898 48.4071L20.6939 48.9214L21.5694 49.4357L22.5245 50.0143L23.3204 50.4643L24.0367 50.7857L24.9122 51.2357L25.7082 51.5571L26.3449 51.8786L27.6184 52.3929L28.0959 52.5214L28.4143 52.7786L28.5735 52.9714L28.9714 52.8429V52.4571L28.8918 52.3929L28.8122 51.9429L28.5735 51.6214L28.4939 51.0429L28.4143 50.9786L28.3347 50.4L28.2551 50.3357L28.1755 49.6286L28.0959 49.5643L28.0163 48.8571L27.9367 48.7929V47.5071L28.0163 47.1857H28.2551L28.1755 47.3143L28.2551 47.4429L29.5286 47.9571H29.6878V48.0857H29.8469V48.2143L30.3245 48.3429V48.4714H30.4837V48.6H30.6429V48.7286H30.802V48.8571H30.9612V48.9857H31.1204V49.1143H31.2796V49.2429H31.4388V49.3714H31.598V49.5H31.7571V49.6286H31.9163V49.7571H32.0755V49.8857H32.2347V50.0143H32.3939V50.1429H32.5531V50.2714H32.7122V50.4H32.8714V50.5286H33.0306V50.6571H33.1898V50.7857H33.349V50.9143H33.5082V51.0429H33.6673L33.8265 51.4286H33.9857L34.1449 51.8143H34.3041V51.9429H34.4633L34.6224 52.3286H34.7816V52.4571H34.9408L35.1 52.8429H35.2592L35.4184 53.2286H35.5775L35.7367 53.6143L36.0551 54.1286H36.2143L36.3735 54.5143L36.7714 55.1571L37.1694 56.0571L37.4878 56.4429L37.5673 56.5071L37.8061 57.4714L38.0449 58.3714L38.1245 59.0143L38.2041 59.1429H38.4429L38.602 58.1143L39.0796 56.6357L39.4775 55.9286L40.1939 54.7071L41.149 53.4214L41.8653 52.65V52.5214H42.0245L42.502 52.0071V51.8786H42.6612V51.75H42.8204L43.298 51.2357V51.1071H43.4571V50.9786H43.6163V50.85H43.7755V50.7214H43.9347V50.5929H44.0939V50.4643H44.2531V50.3357H44.4122V50.2071H44.5714V50.0786H44.7306V49.95H44.8898V49.8214H45.049V49.6929H45.2082V49.5643H45.3673V49.4357H45.5265V49.3071H45.6857V49.1786H45.8449V49.05H46.0041V48.9214H46.1633V48.7929H46.3224V48.6643H46.4816V48.5357H46.6408V48.4071H46.8V48.2786L47.198 48.15L47.9939 47.7L48.3122 47.5071L48.4714 47.6357V49.5643L48.3918 49.6286L48.3122 50.3357L48.2327 50.4L48.1531 50.85L47.9143 51.3L47.8347 51.75L47.5959 52.2L47.3571 52.9071L47.2775 52.9714V53.55L47.6755 53.6786L47.9143 53.2286L48.3918 52.9714L49.1082 52.7786L49.9041 52.5214L50.302 52.3286L51.0184 52.1357L52.3714 51.5571L53.6449 51.0429L54.1224 50.7857L54.5204 50.5929L55.2367 50.2714L55.8735 49.8857L56.351 49.6286L56.749 49.4357L57.1469 49.1143L57.5449 48.9214L57.9429 48.6L58.3408 48.4071L62.2408 45.2571L62.4796 44.9357L62.7184 44.7429L62.9571 44.4214L63.3551 44.1L63.5939 43.7786L64.2306 43.0071L64.4694 42.8143L64.7878 42.3L65.1061 41.9143L65.3449 41.5929L65.902 40.7571L66.2204 40.3714L66.8571 39.3429L67.0959 38.7643L67.3347 38.4429L67.5735 37.8643L67.8918 37.2214L68.1306 36.7714L68.3694 36.0643L68.449 36L68.5286 35.55L68.7673 35.1L68.8469 34.65L68.9265 34.5857L69.0061 34.1357L69.0857 34.0714L69.1653 33.6214L69.2449 33.5571L69.3245 32.9786L69.4041 32.9143L69.4837 32.2071L69.5633 32.1429L69.6429 31.3071L69.7224 31.2429L69.802 30.5357L69.8816 30.4714V24.8143L69.802 24.75L69.7224 23.6571L69.6429 23.5929L69.5633 22.8857L69.4837 22.8214L69.4041 22.1143L69.3245 22.05L69.2449 21.4714L69.1653 21.4071L69.0857 20.9571L69.0061 20.8929L68.9265 20.4429L68.8469 20.3786L68.7673 19.9286L68.5286 19.4786L68.449 19.0286L68.2102 18.5786L67.9714 17.8714L67.7327 17.55L67.4939 16.8429L67.0959 16.2643L66.8571 15.6857L66.1408 14.5929L65.5041 13.5643L65.1857 13.1786L64.9469 12.8571L64.549 12.2786L64.0714 11.7643L63.8326 11.4429L63.1959 10.6714L62.9571 10.4786L62.7184 10.1571L62.3204 9.83572L62.0816 9.51429L58.0224 6.23571L57.6245 6.04286L57.2265 5.72143L56.8286 5.52857L56.5898 5.33571L56.1918 5.14286L55.9531 4.95L55.3163 4.69286L54.6796 4.30714L54.0429 4.05L53.5653 3.79286L53.1673 3.6L51.8143 3.02143L50.7796 2.7L50.0633 2.37857L49.1878 2.18571L48.3918 1.92857L48.3122 1.86429L47.7551 1.8L47.198 1.60714L46.6408 1.54286L46.0837 1.35L45.2082 1.28571L45.1286 1.22143L44.4122 1.15714L44.3326 1.09286L43.4571 1.02857L43.3775 0.964286L42.3429 0.9L42.2633 0.835714H35.7367Z" fill="#232323"/>
<path d="M27.9367 47.1215H28.3347L28.2551 47.4429L28.5735 47.5072L29.6878 47.9572V48.0857H29.8469V48.2143L30.1653 48.2786L30.3245 48.3429V48.4715H30.4837V48.6H30.6429V48.7286H30.802V48.8572H30.9612V48.9857H31.1204V49.1143H31.2796V49.2429H31.4388V49.3715H31.598V49.5H31.7571V49.6286H31.9163V49.7572H32.0755V49.8857H32.2347V50.0143H32.3939V50.1429H32.5531V50.2715H32.7122V50.4H32.8714V50.5286H33.0306V50.6572H33.1898V50.7857H33.349V50.9143H33.5082V51.0429H33.6674L33.8265 51.2357V51.4286H33.9857L34.1449 51.6215V51.8143H34.3041V51.9429H34.4633L34.6225 52.1357V52.3286H34.7816V52.4572H34.9408L35.1 52.65V52.8429H35.2592L35.4184 53.0357V53.2286H35.5776L36.0551 53.9357V54.1286H36.2143L36.851 55.1572L37.249 56.0572L37.5674 56.4429L37.6469 56.5072L37.8857 57.4715L38.1245 58.3715L38.2041 59.1429H38.4429V58.3715L39 56.6357L39.398 55.9286L40.1143 54.7072L41.0694 53.4215L41.8653 52.5215H42.0245L42.1837 52.2643L42.502 51.8786H42.6612V51.75H42.8204L42.9796 51.4929L43.298 51.1072H43.4571V50.9786H43.6163V50.85H43.7755V50.7215H43.9347V50.5929H44.0939V50.4643H44.2531V50.3357H44.4122V50.2072H44.5714V50.0786H44.7306V49.95H44.8898V49.8215H45.049V49.6929H45.2082V49.5643H45.3673V49.4357H45.5265V49.3072H45.6857V49.1786H45.8449V49.05H46.0041V48.9215H46.1633V48.7929H46.3225V48.6643H46.4816V48.5357H46.6408V48.4072H46.8V48.2786L47.7551 47.7643L48.3918 47.4429L48.551 47.6357V49.5643L48.4714 49.6286L48.3918 50.3357L48.3122 50.4L48.2327 50.85L47.9939 51.3L47.9143 51.75L47.6755 52.2L47.4367 52.9072L47.3571 52.9715L47.198 53.6786L47.0388 53.7429L46.7204 54.2572L46.4816 54.8357L46.0837 55.4143L45.9245 55.8L45.6061 56.1857L44.9694 57.2143L44.651 57.4715L44.4122 57.7929L44.0939 58.1786L42.502 59.4643L42.1041 59.6572L41.0694 60.4929L40.6714 60.6857L39.9551 61.2643L39.5571 61.4572L38.9204 61.9715L38.4429 62.6143L38.3633 63H38.2041L38.1245 62.4857L37.8857 62.2929L37.6469 61.9715L36.5327 61.0715L36.1347 60.8786L35.7367 60.5572L35.3388 60.3643L31.8367 57.5357L31.598 57.2143L31.2 56.6357L30.8816 56.25L30.1653 55.0286L29.8469 54.3857L29.6082 54.0643L29.2102 53.1L28.9714 52.9715L28.8918 52.4572L28.8122 52.3929L28.7327 51.9429L28.4939 51.6215L28.4143 51.0429L28.3347 50.9786L28.2551 50.4L28.1755 50.3357L28.0959 49.6286L28.0163 49.5643L27.9367 48.8572L27.8571 48.7929V47.5072L27.9367 47.1857V47.1215Z" fill="#222222"/>
<path d="M30.0857 24.4928H32.6327L32.7122 24.5571L33.2694 24.6214L33.349 24.6857L33.9061 24.7499L34.3041 24.9428L35.0204 25.1357L36.2939 25.7785L37.0898 26.3571L37.3286 26.5499L37.8061 26.4857L38.0449 26.2285L38.1245 25.9714L38.7612 26.3571L39.2388 26.4857L40.2735 25.6499L40.6714 25.4571L42.0245 24.8785L42.9 24.6857L42.9796 24.6214L43.5367 24.5571L43.6163 24.4928H46.6408V24.8785L46.5612 24.9428L46.4816 25.5214L46.402 25.5857L46.3224 26.1642L46.2429 26.2285L46.1633 26.8071L46.0837 26.8714L46.0041 27.4499L45.5265 27.8357L44.2531 28.3499L43.7755 28.4785H41.7061L40.9102 28.2214L40.1939 27.8999L39.2388 27.1285H38.602L38.1245 27.4499L37.8061 27.7714L37.5673 27.5142H36.9306L36.2143 27.9642L35.3388 28.3499L34.4633 28.5428L34.3837 28.6071H33.1102L32.5531 28.4142L31.8367 28.2214L30.6429 27.7071L30.4041 27.4499L30.3245 26.9999L30.2449 26.9357L30.1653 26.3571L30.0857 26.2928L30.0061 25.5857L29.9265 25.5214L29.8469 24.6857L30.0857 24.4928Z" fill="#212121"/>
<path d="M43.6163 24.4928H46.6408V24.8785L46.5612 24.9428L46.4816 25.5214L46.402 25.5857L46.3225 26.1642L46.2429 26.2285L46.1633 26.8071L46.0837 26.8714L46.0041 27.4499L45.5265 27.8357L44.2531 28.3499L43.7755 28.4785H41.7061L40.9102 28.2214L40.1939 27.8999L39.2388 27.1285L38.8408 26.9999L38.7612 26.7428L38.9204 26.5499L39.3184 26.4214L40.2735 25.6499L40.6714 25.4571L42.0245 24.8785L42.9 24.6857L42.9796 24.6214L43.5367 24.5571L43.6163 24.4928Z" fill="#202020"/>
<path d="M38.1245 25.9714L38.7612 26.3571L39.0796 26.4857L38.8408 26.7429L38.9204 27.0643L38.5225 27.1929L38.1245 27.45L37.8061 27.7714L37.5673 27.5143L37.0898 27.45L37.5673 27L37.6469 26.7429L37.4878 26.55L37.8061 26.4857L38.0449 26.2286L38.1245 25.9714Z" fill="#FDFDFD"/>
<path d="M17.9878 12.0215L18.3857 12.0858L18.6245 12.2786L18.5449 12.4072L17.9878 12.0858V12.0215Z" fill="#AFAFAF"/>
<path d="M17.5898 11.7643L17.8286 11.8286V11.8929H17.4306L17.5898 11.7643Z" fill="#FEFEFE"/>
<path d="M26.6633 13.1143L26.7429 13.3071L26.5837 13.3714L26.6633 13.1143Z" fill="#202020"/>
<path d="M19.5796 13.1786L19.8184 13.2429H19.5796V13.1786Z" fill="#8F8F8F"/>
</g>
<defs>
<clipPath id="clip0_1_61">
<rect width="78" height="63" fill="white"/>
</clipPath>
</defs>
</svg>
